<?xml version="1.0" standalone="no"?>
<!DOCTYPE svg PUBLIC "-//W3C//DTD SVG 20010904//EN"
 "http://www.w3.org/TR/2001/REC-SVG-20010904/DTD/svg10.dtd">
<svg version="1.0" xmlns="http://www.w3.org/2000/svg"
 width="700.000000pt" height="700.000000pt" viewBox="0 0 700.000000 700.000000"
 preserveAspectRatio="xMidYMid meet">
<metadata>
Created by potrace 1.11, written by Peter Selinger 2001-2013
</metadata>
<g transform="translate(0.000000,700.000000) scale(0.100000,-0.100000)"
fill="#000000" stroke="none">
<path d="M4917 6633 c-1 -1 -33 -4 -72 -7 -38 -4 -88 -8 -110 -11 -22 -2 -71
-7 -110 -11 -38 -3 -81 -7 -95 -9 -26 -2 -123 -12 -220 -21 -30 -3 -71 -7 -90
-9 -19 -3 -64 -7 -100 -10 -36 -3 -85 -7 -110 -10 -65 -7 -137 -14 -200 -20
-30 -3 -82 -8 -115 -11 -33 -3 -78 -8 -100 -9 -22 -2 -71 -7 -110 -11 -38 -4
-81 -8 -95 -9 -134 -12 -180 -17 -210 -20 -19 -3 -64 -7 -100 -10 -36 -3 -81
-8 -100 -10 -19 -2 -69 -7 -110 -11 -41 -4 -86 -8 -100 -9 -14 -1 -56 -5 -95
-9 -38 -3 -86 -8 -105 -11 -19 -2 -66 -7 -105 -10 -66 -5 -96 -8 -205 -20 -25
-3 -74 -7 -110 -10 -36 -3 -76 -7 -90 -10 -14 -2 -63 -7 -110 -10 -47 -4 -96
-9 -110 -10 -14 -2 -61 -6 -105 -10 -44 -5 -93 -9 -110 -11 -16 -2 -61 -6
-100 -9 -38 -3 -81 -8 -95 -10 -14 -2 -63 -7 -109 -10 -47 -4 -92 -8 -100 -10
-9 -1 -52 -6 -96 -10 -44 -3 -91 -8 -105 -10 -24 -3 -131 -14 -211 -20 -20 -2
-63 -6 -95 -9 -32 -3 -83 -9 -113 -11 -30 -3 -57 -8 -60 -11 -3 -3 -6 -942 -6
-2087 l-1 -2082 181 -135 c99 -74 275 -205 390 -291 116 -86 334 -248 485
-360 151 -113 302 -225 335 -249 33 -24 65 -48 70 -53 8 -7 218 -163 298 -221
12 -9 170 -126 351 -261 181 -135 331 -243 333 -241 2 1 3 152 4 334 0 182 3
333 7 336 4 2 45 7 92 10 47 4 96 9 110 11 14 2 59 7 100 10 41 3 89 8 105 10
17 2 73 6 125 10 52 4 103 9 113 11 10 2 48 6 85 9 109 9 174 15 217 19 22 3
72 7 110 11 80 6 150 13 215 20 83 9 145 14 210 20 36 3 83 7 105 9 22 2 76 7
120 11 44 3 91 8 105 10 14 2 61 7 105 10 44 4 94 9 110 10 17 2 64 6 105 10
41 4 89 9 105 10 17 2 64 6 105 10 41 4 89 8 105 9 17 2 66 7 110 11 44 3 97
8 118 10 70 8 142 14 212 20 39 3 81 8 95 10 14 2 63 6 110 10 47 3 101 8 120
10 19 2 91 9 160 16 69 6 134 13 145 14 11 1 39 3 61 4 l41 1 0 2090 0 2091
-41 34 c-22 18 -376 295 -786 614 l-745 582 -58 -3 c-32 -2 -59 -4 -60 -5z
m249 -770 c149 -115 283 -217 299 -228 15 -11 32 -25 39 -30 6 -6 79 -62 161
-125 83 -63 152 -117 155 -120 3 -3 35 -28 73 -55 37 -27 68 -56 68 -64 4 -52
3 -3381 -1 -3382 -3 0 -13 -2 -24 -4 -10 -2 -62 -6 -115 -10 -53 -3 -112 -8
-131 -10 -19 -1 -71 -6 -115 -9 -44 -4 -98 -9 -120 -11 -22 -2 -72 -7 -110
-10 -39 -3 -93 -7 -120 -9 -28 -3 -86 -8 -130 -11 -44 -3 -101 -7 -125 -10
-78 -7 -183 -16 -250 -20 -36 -3 -90 -7 -120 -10 -30 -3 -82 -8 -115 -10 -96
-8 -176 -15 -230 -20 -27 -3 -81 -7 -120 -10 -38 -3 -95 -7 -125 -10 -30 -3
-82 -7 -115 -10 -33 -3 -89 -7 -125 -10 -36 -3 -87 -8 -115 -10 -27 -2 -86 -7
-130 -10 -44 -3 -98 -8 -120 -10 -22 -3 -76 -7 -120 -10 -44 -3 -100 -7 -125
-10 -63 -6 -153 -14 -230 -20 -124 -9 -312 -26 -345 -30 -11 -1 -27 -3 -36 -4
-13 -1 -15 -21 -14 -140 1 -96 -2 -138 -9 -134 -14 8 -207 145 -226 160 -8 7
-190 139 -405 294 -620 449 -728 527 -759 552 l-28 23 0 1673 c0 920 2 1675 5
1677 3 3 24 7 48 9 109 11 167 16 199 20 19 2 64 7 100 11 36 3 76 7 90 9 14
2 54 6 90 10 36 3 81 8 100 10 19 3 64 7 100 10 36 3 83 8 105 10 39 4 82 9
175 19 56 6 238 25 305 31 139 14 163 16 198 21 20 2 54 6 75 8 20 3 62 7 92
10 126 13 167 17 200 21 19 3 64 7 100 10 36 3 76 7 90 10 14 2 59 6 100 10
41 3 86 8 100 10 14 2 57 7 95 10 39 3 81 8 95 10 14 2 54 7 90 10 36 3 81 7
100 10 19 2 64 7 100 10 36 3 81 8 100 10 19 2 64 6 100 10 36 3 72 8 80 10 8
2 53 7 100 10 47 3 92 8 100 10 8 2 51 7 95 10 44 3 91 8 105 10 40 6 119 14
195 21 39 3 71 7 72 8 2 1 22 3 45 4 42 2 52 -5 314 -205z"/>
</g>
</svg>
